<svg width="12164" height="7335" viewBox="0 0 12164 7335" fill="none" xmlns="http://www.w3.org/2000/svg">
<g clip-path="url(#clip0_2118_2953)">
<rect width="12164" height="7335" rx="350" fill="white"/>
<path d="M-8011.21 2063.69C-7785.79 1957.27 -6860.44 2669.98 -6634.91 2563.51C-6409.37 2457.03 -7334.84 1744.37 -7109.3 1637.89C-6883.76 1531.42 -5958.53 2244.19 -5732.99 2137.71C-5507.45 2031.23 -6432.92 1318.57 -6207.38 1212.1C-5981.84 1105.62 -5056.62 1818.39 -4831.08 1711.91C-4605.54 1605.43 -5531.01 892.777 -5305.47 786.299C-5079.93 679.821 -4154.7 1392.59 -3929.16 1286.11C-3703.63 1179.63 -4629.09 466.979 -4403.68 360.558C-4178.26 254.137 -3252.79 966.793 -3026.89 860.144C-2800.99 753.495 -3726.82 41.0104 -3501.4 -65.4104C-3275.98 -171.831 -2350.39 540.767 -2125.46 434.574C-1900.52 328.382 -2825.39 -384.559 -2599.25 -491.322C-2373.1 -598.085 -1448.48 114.97 -1223.06 8.54872C-997.643 -97.8721 -1922.87 -810.642 -1697.45 -917.063C-1472.03 -1023.48 -546.686 -310.771 -321.147 -417.249C-95.6086 -523.727 -1021.08 -1236.38 -795.659 -1342.8C-570.241 -1449.22 355.228 -736.569 580.767 -843.046C806.305 -949.524 -119.164 -1662.18 106.375 -1768.66C331.914 -1875.14 1257.14 -1162.37 1482.68 -1268.84C1708.22 -1375.32 782.75 -2087.98 1008.29 -2194.46C1233.83 -2300.93 2159.05 -1588.16 2384.59 -1694.64C2610.13 -1801.12 1684.66 -2513.78 1910.2 -2620.25C2135.74 -2726.73 3060.97 -2013.96 3286.51 -2120.44C3512.05 -2226.92 2586.7 -2939.63 2812.12 -3046.05C3037.53 -3152.47 3963 -2439.82 4188.42 -2546.24C4413.84 -2652.66 3488.61 -3365.43 3714.03 -3471.85C3939.45 -3578.27 4864.92 -2865.61 5090.46 -2972.09C5315.99 -3078.57 4390.53 -3791.22 4616.06 -3897.7C4841.6 -4004.18 5766.95 -3291.47 5992.37 -3397.89C6217.79 -3504.31 5292.56 -4217.08 5518.1 -4323.56C5743.64 -4430.03 6668.99 -3717.32 6894.53 -3823.8C7120.06 -3930.28 6194.72 -4642.99 6420.13 -4749.41" stroke="black" stroke-width="10" stroke-miterlimit="10"/>
<path d="M-6111.94 3526.54C-5886.52 3420.12 -4961.17 4132.83 -4735.63 4026.35C-4510.09 3919.87 -5435.56 3207.22 -5210.02 3100.74C-4984.48 2994.26 -4059.26 3707.03 -3833.72 3600.56C-3608.18 3494.08 -4533.65 2781.42 -4308.11 2674.94C-4082.57 2568.47 -3157.34 3281.24 -2931.8 3174.76C-2706.26 3068.28 -3631.73 2355.62 -3406.19 2249.15C-3180.66 2142.67 -2255.43 2855.44 -2029.89 2748.96C-1804.35 2642.48 -2729.82 1929.83 -2504.4 1823.41C-2278.98 1716.99 -1353.51 2429.64 -1127.61 2322.99C-901.712 2216.34 -1827.54 1503.86 -1602.13 1397.44C-1376.71 1291.02 -451.118 2003.61 -226.183 1897.42C-1.24815 1791.23 -926.113 1078.29 -699.97 971.526C-473.827 864.763 450.796 1577.82 676.214 1471.4C901.632 1364.98 -23.595 652.206 201.823 545.785C427.241 439.364 1352.59 1152.08 1578.13 1045.6C1803.67 939.121 878.197 226.466 1103.62 120.045C1329.03 13.6238 2254.5 726.279 2480.04 619.801C2705.58 513.323 1780.11 -199.332 2005.65 -305.81C2231.19 -412.288 3156.42 300.482 3381.95 194.004C3607.49 87.5259 2682.03 -625.13 2907.56 -731.608C3133.1 -838.085 4058.33 -125.316 4283.87 -231.794C4509.41 -338.271 3583.94 -1050.93 3809.48 -1157.41C4035.02 -1263.88 4960.24 -551.113 5185.78 -657.591C5411.32 -764.069 4485.97 -1476.78 4711.39 -1583.2C4936.81 -1689.62 5862.28 -976.968 6087.7 -1083.39C6313.11 -1189.81 5387.89 -1902.58 5613.3 -2009C5838.72 -2115.42 6764.19 -1402.77 6989.73 -1509.24C7215.27 -1615.72 6289.8 -2328.38 6515.34 -2434.85C6740.88 -2541.33 7666.23 -1828.62 7891.64 -1935.04C8117.06 -2041.46 7191.83 -2754.23 7417.37 -2860.71C7642.91 -2967.19 8568.26 -2254.47 8793.8 -2360.95C9019.34 -2467.43 8093.99 -3180.14 8319.41 -3286.56" stroke="black" stroke-width="7" stroke-miterlimit="10"/>
<path d="M-2775.48 6096.3C-2550.06 5989.88 -1624.72 6702.6 -1399.18 6596.12C-1173.64 6489.64 -2099.11 5776.99 -1873.57 5670.51C-1648.03 5564.03 -722.803 6276.8 -497.264 6170.32C-271.725 6063.84 -1197.19 5351.19 -971.655 5244.71C-746.116 5138.23 179.111 5851 404.65 5744.52C630.189 5638.05 -295.28 4925.39 -69.7414 4818.91C155.797 4712.43 1081.02 5425.2 1306.56 5318.73C1532.1 5212.25 606.634 4499.59 832.052 4393.17C1057.47 4286.75 1982.94 4999.41 2208.84 4892.76C2434.74 4786.11 1508.91 4073.62 1734.33 3967.2C1959.75 3860.78 2885.34 4573.38 3110.27 4467.19C3335.2 4360.99 2410.34 3648.05 2636.48 3541.29C2862.63 3434.53 3787.25 4147.58 4012.67 4041.16C4238.09 3934.74 3312.86 3221.97 3538.28 3115.55C3763.69 3009.13 4689.04 3721.84 4914.58 3615.36C5140.12 3508.89 4214.65 2796.23 4440.07 2689.81C4665.49 2583.39 5590.96 3296.04 5816.49 3189.57C6042.03 3083.09 5116.56 2370.43 5342.1 2263.96C5567.64 2157.48 6492.87 2870.25 6718.41 2763.77C6943.95 2657.29 6018.48 1944.64 6244.02 1838.16C6469.56 1731.68 7394.78 2444.45 7620.32 2337.97C7845.86 2231.49 6920.39 1518.84 7145.93 1412.36C7371.47 1305.88 8296.7 2018.65 8522.24 1912.17C8747.77 1805.7 7822.43 1092.98 8047.84 986.563C8273.26 880.142 9198.73 1592.8 9424.15 1486.38C9649.57 1379.96 8724.34 667.186 8949.76 560.766C9175.18 454.345 10100.6 1167 10326.2 1060.52C10551.7 954.044 9626.25 241.389 9851.79 134.911C10077.3 28.4328 11002.7 741.146 11228.1 634.725C11453.5 528.304 10528.3 -184.465 10753.8 -290.943C10979.4 -397.421 11904.7 315.291 12130.3 208.813C12355.8 102.335 11430.4 -610.377 11655.9 -716.798" stroke="black" stroke-width="7" stroke-miterlimit="10"/>
<path d="M1998.14 9772.99C2223.56 9666.57 3148.91 10379.3 3374.45 10272.8C3599.98 10166.3 2674.52 9453.67 2900.05 9347.19C3125.59 9240.72 4050.82 9953.49 4276.36 9847.01C4501.9 9740.53 3576.43 9027.87 3801.97 8921.4C4027.51 8814.92 4952.73 9527.69 5178.27 9421.21C5403.81 9314.73 4478.34 8602.08 4703.88 8495.6C4929.42 8389.12 5854.65 9101.89 6080.19 8995.41C6305.73 8888.94 5380.26 8176.28 5605.67 8069.86C5831.09 7963.44 6756.56 8676.09 6982.46 8569.44C7208.36 8462.8 6282.53 7750.31 6507.95 7643.89C6733.37 7537.47 7658.96 8250.07 7883.89 8143.88C8108.83 8037.68 7183.96 7324.74 7410.11 7217.98C7636.25 7111.22 8560.87 7824.27 8786.29 7717.85C9011.71 7611.43 8086.48 6898.66 8311.9 6792.24C8537.32 6685.82 9462.66 7398.53 9688.2 7292.05C9913.74 7185.57 8988.27 6472.92 9213.69 6366.5C9439.11 6260.08 10364.6 6972.73 10590.1 6866.25C10815.7 6759.78 9890.19 6047.12 10115.7 5940.64C10341.3 5834.17 11266.5 6546.93 11492 6440.46C11717.6 6333.98 10792.1 5621.32 11017.6 5514.85C11243.2 5408.37 12168.4 6121.14 12393.9 6014.66C12619.5 5908.18 11694 5195.53 11919.6 5089.05C12145.1 4982.57 13070.3 5695.34 13295.9 5588.86C13521.4 5482.38 12596 4769.67 12821.5 4663.25C13046.9 4556.83 13972.4 5269.48 14197.8 5163.06C14423.2 5056.64 13498 4343.87 13723.4 4237.45C13948.8 4131.03 14874.3 4843.69 15099.8 4737.21C15325.3 4630.73 14399.9 3918.08 14625.4 3811.6C14851 3705.12 15776.3 4417.83 16001.7 4311.41C16227.1 4204.99 15301.9 3492.22 15527.4 3385.74C15753 3279.27 16678.3 3991.98 16903.9 3885.5C17129.4 3779.02 16204.1 3066.31 16429.5 2959.89" stroke="black" stroke-width="7" stroke-miterlimit="10"/>
<path d="M-7085.86 2776.4C-6860.44 2669.98 -5935.09 3382.69 -5709.55 3276.22C-5484.01 3169.74 -6409.48 2457.08 -6183.94 2350.6C-5958.41 2244.13 -5033.18 2956.9 -4807.64 2850.42C-4582.1 2743.94 -5507.57 2031.29 -5282.03 1924.81C-5056.49 1818.33 -4131.26 2531.1 -3905.73 2424.62C-3680.19 2318.14 -4605.66 1605.49 -4380.12 1499.01C-4154.58 1392.53 -3229.35 2105.3 -3003.81 1998.82C-2778.27 1892.35 -3703.74 1179.69 -3478.32 1073.27C-3252.91 966.848 -2327.44 1679.5 -2101.54 1572.85C-1875.63 1466.21 -2801.47 753.721 -2576.05 647.301C-2350.63 540.88 -1425.04 1253.48 -1200.11 1147.29C-975.171 1041.09 -1900.04 328.152 -1673.89 221.389C-1447.75 114.626 -523.126 827.681 -297.708 721.26C-72.2903 614.839 -997.517 -97.9308 -772.099 -204.352C-546.681 -310.773 378.666 401.94 604.205 295.462C829.744 188.984 -95.7249 -523.671 129.693 -630.092C355.111 -736.513 1280.58 -23.8576 1506.12 -130.335C1731.66 -236.813 806.189 -949.469 1031.73 -1055.95C1257.27 -1162.42 2182.49 -449.655 2408.03 -556.133C2633.57 -662.611 1708.1 -1375.27 1933.64 -1481.74C2159.18 -1588.22 3084.41 -875.452 3309.95 -981.93C3535.48 -1088.41 2610.02 -1801.06 2835.56 -1907.54C3061.09 -2014.02 3986.32 -1301.25 4211.86 -1407.73C4437.4 -1514.21 3512.05 -2226.92 3737.47 -2333.34C3962.89 -2439.76 4888.36 -1727.1 5113.77 -1833.53C5339.19 -1939.95 4413.96 -2652.72 4639.38 -2759.14C4864.8 -2865.56 5790.27 -2152.9 6015.81 -2259.38C6241.35 -2365.86 5315.88 -3078.51 5541.42 -3184.99C5766.96 -3291.47 6692.3 -2578.76 6917.72 -2685.18C7143.14 -2791.6 6217.91 -3504.37 6443.45 -3610.85C6668.99 -3717.32 7594.34 -3004.61 7819.88 -3111.09C8045.42 -3217.57 7120.07 -3930.28 7345.49 -4036.7" stroke="black" stroke-width="7" stroke-miterlimit="10"/>
<path d="M-3749.42 5346.17C-3524 5239.75 -2598.65 5952.46 -2373.11 5845.99C-2147.57 5739.51 -3073.04 5026.85 -2847.5 4920.37C-2621.96 4813.9 -1696.74 5526.67 -1471.2 5420.19C-1245.66 5313.71 -2171.13 4601.05 -1945.59 4494.58C-1720.05 4388.1 -794.822 5100.87 -569.283 4994.39C-343.744 4887.91 -1269.21 4175.26 -1043.67 4068.78C-818.135 3962.3 107.092 4675.07 332.631 4568.59C558.17 4462.12 -367.299 3749.46 -141.881 3643.04C83.537 3536.62 1009.01 4249.27 1234.91 4142.62C1460.81 4035.98 534.977 3323.49 760.395 3217.07C985.813 3110.65 1911.4 3823.25 2136.34 3717.05C2361.27 3610.86 1436.41 2897.92 1662.55 2791.16C1888.69 2684.4 2813.32 3397.45 3038.73 3291.03C3264.15 3184.61 2338.93 2471.84 2564.34 2365.42C2789.76 2259 3715.11 2971.71 3940.65 2865.23C4166.19 2758.75 3240.72 2046.1 3466.14 1939.68C3691.55 1833.26 4617.02 2545.91 4842.56 2439.43C5068.1 2332.96 4142.63 1620.3 4368.17 1513.82C4593.71 1407.35 5518.94 2120.11 5744.48 2013.64C5970.01 1907.16 5044.55 1194.5 5270.08 1088.03C5495.62 981.547 6420.85 1694.32 6646.39 1587.84C6871.93 1481.36 5946.46 768.705 6172 662.228C6397.54 555.75 7322.76 1268.52 7548.3 1162.04C7773.84 1055.56 6848.49 342.851 7073.91 236.43C7299.33 130.009 8224.8 842.665 8450.22 736.244C8675.64 629.823 7750.41 -82.9464 7975.83 -189.367C8201.24 -295.788 9126.71 416.867 9352.25 310.389C9577.79 203.911 8652.32 -508.744 8877.86 -615.222C9103.4 -721.7 10028.7 -8.98722 10254.2 -115.408C10479.6 -221.829 9554.35 -934.598 9779.89 -1041.08C10005.4 -1147.55 10930.8 -434.842 11156.3 -541.32C11381.9 -647.798 10456.5 -1360.51 10681.9 -1466.93" stroke="black" stroke-width="7" stroke-miterlimit="10"/>
<path d="M1024.21 9022.87C1249.63 8916.45 2174.97 9629.16 2400.51 9522.68C2626.05 9416.2 1700.58 8703.55 1926.12 8597.07C2151.66 8490.59 3076.89 9203.36 3302.43 9096.88C3527.97 8990.41 2602.5 8277.75 2828.04 8171.27C3053.58 8064.79 3978.8 8777.56 4204.34 8671.09C4429.88 8564.61 3504.41 7851.95 3729.95 7745.47C3955.49 7639 4880.72 8351.77 5106.26 8245.29C5331.79 8138.81 4406.32 7426.15 4631.74 7319.73C4857.16 7213.31 5782.63 7925.97 6008.53 7819.32C6234.43 7712.67 5308.6 7000.19 5534.02 6893.77C5759.44 6787.34 6685.03 7499.94 6909.96 7393.75C7134.9 7287.56 6210.03 6574.62 6436.17 6467.85C6662.32 6361.09 7586.94 7074.15 7812.36 6967.72C8037.78 6861.3 7112.55 6148.53 7337.97 6042.11C7563.39 5935.69 8488.73 6648.41 8714.27 6541.93C8939.81 6435.45 8014.34 5722.79 8239.76 5616.37C8465.18 5509.95 9390.65 6222.61 9616.19 6116.13C9841.72 6009.65 8916.26 5297 9141.79 5190.52C9367.33 5084.04 10292.6 5796.81 10518.1 5690.33C10743.6 5583.85 9818.17 4871.2 10043.7 4764.72C10269.2 4658.24 11194.5 5371.01 11420 5264.53C11645.6 5158.06 10720.1 4445.4 10945.6 4338.92C11171.2 4232.44 12096.4 4945.21 12321.9 4838.74C12547.5 4732.26 11622.1 4019.55 11847.5 3913.13C12073 3806.7 12998.4 4519.36 13223.8 4412.94C13449.3 4306.52 12524 3593.75 12749.4 3487.33C12974.9 3380.91 13900.3 4093.56 14125.9 3987.08C14351.4 3880.61 13425.9 3167.95 13651.5 3061.47C13877 2955 14802.4 3667.71 15027.8 3561.29C15253.2 3454.87 14328 2742.1 14553.5 2635.62C14779.1 2529.14 15704.4 3241.85 15929.9 3135.38C16155.5 3028.9 15230.1 2316.19 15455.6 2209.76" stroke="black" stroke-width="7" stroke-miterlimit="10"/>
<path d="M-5186.58 4239.25C-4961.16 4132.83 -4035.82 4845.54 -3810.28 4739.06C-3584.74 4632.59 -4510.21 3919.93 -4284.67 3813.45C-4059.13 3706.97 -3133.9 4419.74 -2908.36 4313.27C-2682.82 4206.79 -3608.29 3494.13 -3382.75 3387.65C-3157.22 3281.18 -2231.99 3993.95 -2006.45 3887.47C-1780.91 3780.99 -2706.38 3068.34 -2480.84 2961.86C-2255.3 2855.38 -1330.07 3568.15 -1104.54 3461.67C-878.997 3355.19 -1804.47 2642.54 -1579.05 2536.12C-1353.63 2429.7 -428.161 3142.35 -202.26 3035.7C23.6414 2929.05 -902.19 2216.57 -676.772 2110.15C-451.354 2003.73 474.236 2716.33 699.171 2610.13C924.105 2503.94 -0.759504 1791 225.383 1684.24C451.526 1577.47 1376.15 2290.53 1601.57 2184.11C1826.99 2077.69 901.758 1364.92 1127.18 1258.5C1352.59 1152.08 2277.94 1864.79 2503.48 1758.31C2729.02 1651.83 1803.55 939.177 2028.97 832.756C2254.39 726.335 3179.86 1438.99 3405.4 1332.51C3630.93 1226.03 2705.46 513.379 2931 406.901C3156.54 300.423 4081.77 1013.19 4307.31 906.715C4532.85 800.237 3607.38 87.5813 3832.92 -18.8966C4058.46 -125.374 4983.68 587.395 5209.22 480.917C5434.76 374.439 4509.29 -338.216 4734.83 -444.694C4960.37 -551.172 5885.6 161.598 6111.14 55.1197C6336.67 -51.3583 5411.33 -764.071 5636.74 -870.492C5862.16 -976.913 6787.63 -264.257 7013.05 -370.678C7238.47 -477.099 6313.24 -1189.87 6538.66 -1296.29C6764.08 -1402.71 7689.55 -690.055 7915.08 -796.533C8140.62 -903.01 7215.15 -1615.67 7440.69 -1722.14C7666.23 -1828.62 8591.58 -1115.91 8817 -1222.33C9042.42 -1328.75 8117.19 -2041.52 8342.73 -2148C8568.27 -2254.48 9493.61 -1541.76 9719.15 -1648.24C9944.69 -1754.72 9019.34 -2467.43 9244.76 -2573.85" stroke="black" stroke-width="7" stroke-miterlimit="10"/>
<path d="M-412.958 7915.94C-187.54 7809.52 737.808 8522.23 963.347 8415.75C1188.89 8309.27 263.417 7596.62 488.956 7490.14C714.495 7383.66 1639.72 8096.43 1865.26 7989.95C2090.8 7883.48 1165.33 7170.82 1390.87 7064.34C1616.41 6957.86 2541.64 7670.63 2767.17 7564.16C2992.71 7457.68 2067.24 6745.02 2292.78 6638.54C2518.32 6532.07 3443.55 7244.84 3669.09 7138.36C3894.63 7031.88 2969.16 6319.23 3194.58 6212.8C3419.99 6106.38 4345.46 6819.04 4571.36 6712.39C4797.27 6605.74 3871.43 5893.26 4096.85 5786.84C4322.27 5680.41 5247.86 6393.01 5472.79 6286.82C5697.73 6180.63 4772.86 5467.69 4999.01 5360.92C5225.15 5254.16 6149.77 5967.22 6375.19 5860.79C6600.61 5754.37 5675.38 5041.6 5900.8 4935.18C6126.22 4828.76 7051.57 5541.48 7277.1 5435C7502.64 5328.52 6577.17 4615.86 6802.59 4509.44C7028.01 4403.02 7953.48 5115.68 8179.02 5009.2C8404.56 4902.72 7479.09 4190.07 7704.63 4083.59C7930.17 3977.11 8855.39 4689.88 9080.93 4583.4C9306.47 4476.92 8381 3764.27 8606.54 3657.79C8832.08 3551.31 9757.31 4264.08 9982.85 4157.6C10208.4 4051.13 9282.92 3338.47 9508.46 3231.99C9733.99 3125.52 10659.2 3838.29 10884.8 3731.81C11110.3 3625.33 10185 2912.62 10410.4 2806.2C10635.8 2699.77 11561.3 3412.43 11786.7 3306.01C12012.1 3199.59 11086.9 2486.82 11312.3 2380.4C11537.7 2273.98 12463.2 2986.63 12688.7 2880.15C12914.2 2773.68 11988.8 2061.02 12214.3 1954.54C12439.9 1848.07 13365.2 2560.78 13590.6 2454.36C13816 2347.94 12890.8 1635.17 13116.4 1528.69C13341.9 1422.21 14267.2 2134.92 14492.8 2028.45C14718.3 1921.97 13793 1209.26 14018.4 1102.83" stroke="black" stroke-width="7" stroke-miterlimit="10"/>
<path d="M-1850.13 6809.02C-1624.71 6702.59 -699.364 7415.31 -473.825 7308.83C-248.286 7202.35 -1173.75 6489.7 -948.216 6383.22C-722.677 6276.74 202.55 6989.51 428.089 6883.03C653.627 6776.55 -271.841 6063.9 -46.3024 5957.42C179.236 5850.94 1104.46 6563.71 1330 6457.23C1555.54 6350.76 630.072 5638.1 855.611 5531.62C1081.15 5425.15 2006.38 6137.91 2231.92 6031.44C2457.45 5924.96 1531.99 5212.3 1757.4 5105.88C1982.82 4999.46 2908.29 5712.12 3134.19 5605.47C3360.09 5498.82 2434.26 4786.33 2659.68 4679.91C2885.1 4573.49 3810.69 5286.09 4035.62 5179.9C4260.56 5073.71 3335.69 4360.77 3561.84 4254C3787.98 4147.24 4712.6 4860.29 4938.02 4753.87C5163.44 4647.45 4238.21 3934.68 4463.63 3828.26C4689.05 3721.84 5614.39 4434.55 5839.93 4328.08C6065.47 4221.6 5140 3508.94 5365.42 3402.52C5590.84 3296.1 6516.31 4008.76 6741.85 3902.28C6967.39 3795.8 6041.92 3083.14 6267.46 2976.67C6492.99 2870.19 7418.22 3582.96 7643.76 3476.48C7869.3 3370 6943.83 2657.35 7169.37 2550.87C7394.91 2444.39 8320.14 3157.16 8545.67 3050.68C8771.21 2944.21 7845.74 2231.55 8071.28 2125.07C8296.82 2018.59 9222.05 2731.36 9447.59 2624.89C9673.13 2518.41 8747.78 1805.69 8973.2 1699.27C9198.61 1592.85 10124.1 2305.51 10349.5 2199.09C10574.9 2092.67 9649.69 1379.9 9875.11 1273.48C10100.5 1167.06 11026 1879.71 11251.5 1773.23C11477.1 1666.76 10551.6 954.1 10777.1 847.622C11002.7 741.144 11928 1453.86 12153.4 1347.44C12378.9 1241.01 11453.6 528.245 11679.2 421.768C11904.7 315.29 12830.1 1028 13055.6 921.524C13281.1 815.046 12355.8 102.334 12581.2 -4.08728" stroke="black" stroke-width="7" stroke-miterlimit="10"/>
<path d="M2923.49 10485.7C3148.91 10379.3 4074.25 11092 4299.79 10985.5C4525.33 10879 3599.86 10166.4 3825.4 10059.9C4050.94 9953.44 4976.17 10666.2 5201.71 10559.7C5427.25 10453.2 4501.78 9740.59 4727.32 9634.12C4952.85 9527.64 5878.08 10240.4 6103.62 10133.9C6329.16 10027.5 5403.69 9314.8 5629.23 9208.32C5854.77 9101.84 6780 9814.61 7005.53 9708.13C7231.07 9601.65 6305.6 8889 6531.02 8782.58C6756.44 8676.16 7681.91 9388.81 7907.81 9282.16C8133.71 9175.51 7207.88 8463.03 7433.3 8356.61C7658.72 8250.19 8584.31 8962.79 8809.24 8856.59C9034.18 8750.4 8109.31 8037.46 8335.45 7930.7C8561.6 7823.93 9486.22 8536.99 9711.64 8430.57C9937.06 8324.15 9011.83 7611.38 9237.25 7504.96C9462.66 7398.54 10388 8111.25 10613.6 8004.77C10839.1 7898.29 9913.62 7185.64 10139 7079.22C10364.5 6972.8 11289.9 7685.45 11515.5 7578.97C11741 7472.5 10815.5 6759.84 11041.1 6653.36C11266.6 6546.88 12191.8 7259.65 12417.4 7153.18C12642.9 7046.7 11717.4 6334.04 11943 6227.56C12168.5 6121.09 13093.8 6833.86 13319.3 6727.38C13544.8 6620.9 12619.4 5908.24 12844.9 5801.77C13070.4 5695.29 13995.7 6408.06 14221.2 6301.58C14446.7 6195.1 13521.4 5482.39 13746.8 5375.97C13972.2 5269.55 14897.7 5982.2 15123.1 5875.78C15348.5 5769.36 14423.3 5056.59 14648.7 4950.17C14874.1 4843.75 15799.6 5556.41 16025.2 5449.93C16250.7 5343.45 15325.2 4630.79 15550.8 4524.32C15776.3 4417.84 16701.6 5130.55 16927.1 5024.13C17152.5 4917.71 16227.3 4204.94 16452.8 4098.46C16678.3 3991.98 17603.7 4704.7 17829.2 4598.22C18054.8 4491.74 17129.4 3779.03 17354.8 3672.61" stroke="black" stroke-width="7" stroke-miterlimit="10"/>
<path d="M-7549.1 2419.61C-7323.68 2313.19 -6398.34 3025.9 -6172.8 2919.43C-5947.26 2812.95 -6872.73 2100.29 -6647.19 1993.82C-6421.65 1887.34 -5496.42 2600.11 -5270.88 2493.63C-5045.34 2387.15 -5970.81 1674.5 -5745.27 1568.02C-5519.74 1461.54 -4594.51 2174.31 -4368.97 2067.83C-4143.43 1961.35 -5068.9 1248.7 -4843.36 1142.22C-4617.82 1035.74 -3692.59 1748.51 -3467.06 1642.03C-3241.52 1535.56 -4166.99 822.901 -3941.57 716.48C-3716.15 610.059 -2790.68 1322.71 -2564.78 1216.07C-2338.88 1109.42 -3264.71 396.932 -3039.29 290.511C-2813.87 184.091 -1888.28 896.689 -1663.35 790.496C-1438.41 684.304 -2363.28 -28.6371 -2137.14 -135.4C-1910.99 -242.163 -986.37 470.891 -760.952 364.471C-535.534 258.05 -1460.76 -454.72 -1235.34 -561.141C-1009.93 -667.562 -84.5779 45.1511 140.961 -61.3268C366.5 -167.805 -558.969 -880.46 -333.551 -986.881C-108.133 -1093.3 817.336 -380.647 1042.88 -487.125C1268.41 -593.602 342.944 -1306.26 568.483 -1412.74C794.022 -1519.21 1719.25 -806.444 1944.79 -912.922C2170.33 -1019.4 1244.86 -1732.06 1470.4 -1838.53C1695.94 -1945.01 2621.16 -1232.24 2846.7 -1338.72C3072.24 -1445.2 2146.77 -2157.85 2372.31 -2264.33C2597.85 -2370.81 3523.08 -1658.04 3748.62 -1764.52C3974.15 -1870.99 3048.81 -2583.71 3274.22 -2690.13C3499.64 -2796.55 4425.11 -2083.89 4650.53 -2190.31C4875.95 -2296.74 3950.72 -3009.5 4176.14 -3115.93C4401.56 -3222.35 5327.03 -2509.69 5552.56 -2616.17C5778.1 -2722.65 4852.63 -3435.3 5078.17 -3541.78C5303.71 -3648.26 6229.06 -2935.55 6454.48 -3041.97C6679.9 -3148.39 5754.67 -3861.16 5980.21 -3967.63C6205.75 -4074.11 7131.09 -3361.4 7356.63 -3467.88C7582.17 -3574.36 6656.82 -4287.07 6882.24 -4393.49" stroke="black" stroke-width="10" stroke-miterlimit="10"/>
<path d="M-4212.65 4989.38C-3987.23 4882.96 -3061.88 5595.67 -2836.35 5489.2C-2610.81 5382.72 -3536.28 4670.06 -3310.74 4563.59C-3085.2 4457.11 -2159.97 5169.88 -1934.43 5063.4C-1708.89 4956.92 -2634.36 4244.27 -2408.82 4137.79C-2183.28 4031.31 -1258.06 4744.08 -1032.52 4637.6C-806.979 4531.12 -1732.45 3818.47 -1506.91 3711.99C-1281.37 3605.51 -356.143 4318.28 -130.604 4211.8C94.9345 4105.33 -830.534 3392.67 -605.116 3286.25C-379.698 3179.83 545.771 3892.48 771.672 3785.84C997.573 3679.19 71.7417 2966.7 297.16 2860.28C522.578 2753.86 1448.17 3466.46 1673.1 3360.27C1898.04 3254.07 973.172 2541.13 1199.31 2434.37C1425.46 2327.61 2350.08 3040.66 2575.5 2934.24C2800.92 2827.82 1875.69 2115.05 2101.11 2008.63C2326.53 1902.21 3251.87 2614.92 3477.41 2508.44C3702.95 2401.96 2777.48 1689.31 3002.9 1582.89C3228.32 1476.47 4153.79 2189.12 4379.33 2082.64C4604.87 1976.17 3679.4 1263.51 3904.93 1157.03C4130.47 1050.56 5055.7 1763.33 5281.24 1656.85C5506.78 1550.37 4581.31 837.714 4806.85 731.236C5032.39 624.758 5957.61 1337.53 6183.15 1231.05C6408.69 1124.57 5483.22 411.916 5708.76 305.438C5934.3 198.961 6859.53 911.73 7085.07 805.252C7310.61 698.775 6385.26 -13.938 6610.68 -120.359C6836.09 -226.78 7761.56 485.876 7986.98 379.455C8212.4 273.034 7287.17 -439.735 7512.59 -546.156C7738.01 -652.577 8663.48 60.0781 8889.02 -46.3998C9114.55 -152.878 8189.09 -865.533 8414.62 -972.011C8640.16 -1078.49 9565.51 -365.776 9790.93 -472.197C10016.3 -578.618 9091.12 -1291.39 9316.66 -1397.87C9542.2 -1504.34 10467.5 -791.631 10693.1 -898.109C10918.6 -1004.59 9993.28 -1717.3 10218.7 -1823.72" stroke="black" stroke-width="7" stroke-miterlimit="10"/>
<path d="M560.975 8666.07C786.393 8559.65 1711.74 9272.37 1937.28 9165.89C2162.82 9059.41 1237.35 8346.75 1462.89 8240.28C1688.43 8133.8 2613.65 8846.57 2839.19 8740.09C3064.73 8633.61 2139.26 7920.96 2364.8 7814.48C2590.34 7708 3515.57 8420.77 3741.11 8314.29C3966.65 8207.81 3041.18 7495.16 3266.72 7388.68C3492.25 7282.2 4417.48 7994.97 4643.02 7888.5C4868.56 7782.02 3943.09 7069.36 4168.51 6962.94C4393.93 6856.52 5319.4 7569.18 5545.3 7462.53C5771.2 7355.88 4845.37 6643.39 5070.78 6536.97C5296.2 6430.55 6221.79 7143.15 6446.73 7036.96C6671.66 6930.76 5746.8 6217.82 5972.94 6111.06C6199.08 6004.3 7123.71 6717.35 7349.12 6610.93C7574.54 6504.51 6649.32 5791.74 6874.73 5685.32C7100.15 5578.9 8025.5 6291.61 8251.04 6185.13C8476.58 6078.66 7551.11 5366 7776.53 5259.58C8001.94 5153.16 8927.41 5865.81 9152.95 5759.34C9378.49 5652.86 8453.02 4940.2 8678.56 4833.73C8904.1 4727.25 9829.33 5440.02 10054.9 5333.54C10280.4 5227.06 9354.94 4514.41 9580.47 4407.93C9806.01 4301.45 10731.2 5014.22 10956.8 4907.74C11182.3 4801.26 10256.8 4088.61 10482.4 3982.13C10707.9 3875.65 11633.2 4588.42 11858.7 4481.94C12084.2 4375.47 11158.9 3662.75 11384.3 3556.33C11609.7 3449.91 12535.2 4162.57 12760.6 4056.15C12986 3949.73 12060.8 3236.96 12286.2 3130.54C12511.6 3024.11 13437.1 3736.77 13662.6 3630.29C13888.2 3523.81 12962.7 2811.16 13188.2 2704.68C13413.8 2598.2 14339.1 3310.92 14564.6 3204.49C14790 3098.07 13864.7 2385.3 14090.3 2278.83C14315.8 2172.35 15241.2 2885.06 15466.7 2778.58C15692.2 2672.1 14766.9 1959.39 14992.3 1852.97" stroke="black" stroke-width="7" stroke-miterlimit="10"/>
<path d="M-5649.82 3882.46C-5424.4 3776.04 -4499.05 4488.75 -4273.51 4382.27C-4047.97 4275.8 -4973.44 3563.14 -4747.9 3456.66C-4522.36 3350.19 -3597.14 4062.96 -3371.6 3956.48C-3146.06 3850 -4071.53 3137.34 -3845.99 3030.87C-3620.45 2924.39 -2695.22 3637.16 -2469.68 3530.68C-2244.15 3424.2 -3169.61 2711.55 -2944.08 2605.07C-2718.54 2498.59 -1793.31 3211.36 -1567.77 3104.88C-1342.23 2998.4 -2267.7 2285.75 -2042.28 2179.33C-1816.86 2072.91 -891.395 2785.56 -665.494 2678.91C-439.593 2572.26 -1365.42 1859.78 -1140.01 1753.36C-914.588 1646.94 11.0013 2359.54 235.936 2253.34C460.871 2147.15 -463.994 1434.21 -237.851 1327.45C-11.7082 1220.68 912.915 1933.74 1138.33 1827.32C1363.75 1720.9 438.524 1008.13 663.942 901.707C889.36 795.286 1814.71 1508 2040.25 1401.52C2265.79 1295.04 1340.32 582.387 1565.73 475.967C1791.15 369.546 2716.62 1082.2 2942.16 975.723C3167.7 869.245 2242.23 156.59 2467.77 50.1121C2693.31 -56.3658 3618.54 656.404 3844.07 549.926C4069.61 443.448 3144.14 -269.208 3369.68 -375.686C3595.22 -482.164 4520.45 230.606 4745.99 124.128C4971.53 17.6504 4046.06 -695.005 4271.6 -801.483C4497.14 -907.961 5422.36 -195.192 5647.9 -301.669C5873.44 -408.147 4948.09 -1120.86 5173.51 -1227.28C5398.93 -1333.7 6324.4 -621.046 6549.82 -727.467C6775.23 -833.888 5850.01 -1546.66 6075.42 -1653.08C6300.84 -1759.5 7226.31 -1046.84 7451.85 -1153.32C7677.39 -1259.8 6751.92 -1972.46 6977.46 -2078.93C7203 -2185.41 8128.35 -1472.7 8353.76 -1579.12C8579.18 -1685.54 7653.95 -2398.31 7879.49 -2504.79C8105.03 -2611.27 9030.38 -1898.55 9255.92 -2005.03C9481.46 -2111.51 8556.11 -2824.22 8781.53 -2930.64" stroke="black" stroke-width="7" stroke-miterlimit="10"/>
<path d="M-876.197 7559.15C-650.779 7452.73 274.569 8165.44 500.108 8058.96C725.646 7952.48 -199.822 7239.83 25.7165 7133.35C251.255 7026.87 1176.48 7739.64 1402.02 7633.16C1627.56 7526.69 702.091 6814.03 927.63 6707.55C1153.17 6601.08 2078.4 7313.85 2303.94 7207.37C2529.47 7100.89 1604 6388.23 1829.54 6281.76C2055.08 6175.28 2980.31 6888.05 3205.85 6781.57C3431.39 6675.09 2505.92 5962.44 2731.34 5856.02C2956.75 5749.59 3882.22 6462.25 4108.12 6355.6C4334.03 6248.95 3408.19 5536.47 3633.61 5430.05C3859.03 5323.63 4784.62 6036.22 5009.56 5930.03C5234.49 5823.84 4309.63 5110.9 4535.77 5004.14C4761.91 4897.37 5686.53 5610.43 5911.95 5504.01C6137.37 5397.58 5212.14 4684.82 5437.56 4578.39C5662.98 4471.97 6588.33 5184.69 6813.87 5078.21C7039.4 4971.73 6113.94 4259.07 6339.35 4152.65C6564.77 4046.23 7490.24 4758.89 7715.78 4652.41C7941.32 4545.93 7015.85 3833.28 7241.39 3726.8C7466.93 3620.32 8392.15 4333.09 8617.69 4226.61C8843.23 4120.14 7917.76 3407.48 8143.3 3301C8368.84 3194.52 9294.07 3907.29 9519.61 3800.82C9745.15 3694.34 8819.68 2981.68 9045.22 2875.2C9270.76 2768.73 10196 3481.5 10421.5 3375.02C10647.1 3268.54 9721.71 2555.83 9947.13 2449.41C10172.5 2342.99 11098 3055.64 11323.4 2949.22C11548.9 2842.8 10623.6 2130.03 10849 2023.61C11074.5 1917.19 11999.9 2629.84 12225.5 2523.37C12451 2416.89 11525.5 1704.23 11751.1 1597.75C11976.6 1491.28 12902 2203.99 13127.4 2097.57C13352.8 1991.15 12427.6 1278.38 12653.1 1171.9C12878.7 1065.42 13804 1778.13 14029.5 1671.66C14255.1 1565.18 13329.7 852.466 13555.1 746.046" stroke="black" stroke-width="7" stroke-miterlimit="10"/>
<path d="M-2313.37 6452.22C-2087.96 6345.8 -1162.61 7058.51 -937.069 6952.04C-711.53 6845.56 -1637 6132.9 -1411.46 6026.43C-1185.92 5919.95 -260.694 6632.72 -35.1555 6526.24C190.383 6419.76 -735.085 5707.11 -509.547 5600.63C-284.008 5494.15 641.219 6206.92 866.758 6100.44C1092.3 5993.96 166.828 5281.31 392.367 5174.83C617.906 5068.35 1543.13 5781.12 1768.67 5674.64C1994.21 5568.17 1068.74 4855.51 1294.16 4749.09C1519.58 4642.67 2445.05 5355.32 2670.95 5248.68C2896.85 5142.03 1971.02 4429.54 2196.44 4323.12C2421.85 4216.7 3347.44 4929.3 3572.38 4823.11C3797.31 4716.91 2872.45 4003.97 3098.59 3897.21C3324.73 3790.45 4249.36 4503.5 4474.78 4397.08C4700.19 4290.66 3774.97 3577.89 4000.38 3471.47C4225.8 3365.05 5151.15 4077.76 5376.69 3971.28C5602.23 3864.8 4676.76 3152.15 4902.18 3045.73C5127.59 2939.31 6053.06 3651.96 6278.6 3545.48C6504.14 3439.01 5578.67 2726.35 5804.21 2619.87C6029.75 2513.4 6954.98 3226.17 7180.52 3119.69C7406.06 3013.21 6480.59 2300.55 6706.13 2194.08C6931.66 2087.6 7856.89 2800.37 8082.43 2693.89C8307.97 2587.41 7382.5 1874.76 7608.04 1768.28C7833.58 1661.8 8758.81 2374.57 8984.34 2268.09C9209.88 2161.61 8284.53 1448.9 8509.95 1342.48C8735.37 1236.06 9660.84 1948.72 9886.26 1842.29C10111.7 1735.87 9186.45 1023.1 9411.87 916.684C9637.28 810.263 10562.8 1522.92 10788.3 1416.44C11013.8 1309.96 10088.4 597.307 10313.9 490.829C10539.4 384.351 11464.8 1097.06 11690.2 990.643C11915.6 884.222 10990.4 171.452 11215.9 64.9746C11441.5 -41.5033 12366.8 671.209 12592.4 564.731C12817.9 458.253 11892.6 -254.459 12118 -360.88" stroke="black" stroke-width="7" stroke-miterlimit="10"/>
<path d="M2460.25 10128.9C2685.67 10022.5 3611.02 10735.2 3836.56 10628.7C4062.1 10522.3 3136.63 9809.6 3362.17 9703.12C3587.71 9596.64 4512.93 10309.4 4738.47 10202.9C4964.01 10096.5 4038.54 9383.8 4264.08 9277.32C4489.62 9170.84 5414.85 9883.61 5640.39 9777.14C5865.93 9670.66 4940.46 8958 5165.99 8851.53C5391.53 8745.05 6316.76 9457.82 6542.3 9351.34C6767.84 9244.86 5842.37 8532.21 6067.79 8425.78C6293.21 8319.36 7218.67 9032.02 7444.58 8925.37C7670.48 8818.72 6744.65 8106.24 6970.06 7999.82C7195.48 7893.4 8121.07 8605.99 8346.01 8499.8C8570.94 8393.61 7646.08 7680.67 7872.22 7573.9C8098.36 7467.14 9022.99 8180.2 9248.4 8073.78C9473.82 7967.35 8548.59 7254.58 8774.01 7148.16C8999.43 7041.74 9924.78 7754.46 10150.3 7647.98C10375.9 7541.5 9450.39 6828.84 9675.8 6722.42C9901.22 6616 10826.7 7328.66 11052.2 7222.18C11277.8 7115.7 10352.3 6403.05 10577.8 6296.57C10803.4 6190.09 11728.6 6902.86 11954.1 6796.38C12179.7 6689.9 11254.2 5977.25 11479.8 5870.77C11705.3 5764.29 12630.5 6477.06 12856.1 6370.59C13081.6 6264.11 12156.1 5551.45 12381.7 5444.97C12607.2 5338.5 13532.4 6051.27 13758 5944.79C13983.5 5838.31 13058.2 5125.6 13283.6 5019.18C13509 4912.76 14434.5 5625.41 14659.9 5518.99C14885.3 5412.57 13960.1 4699.8 14185.5 4593.38C14410.9 4486.96 15336.4 5199.61 15561.9 5093.14C15787.5 4986.66 14862 4274 15087.5 4167.52C15313.1 4061.05 16238.4 4773.76 16463.8 4667.34C16689.3 4560.92 15764 3848.15 15989.6 3741.67C16215.1 3635.19 17140.5 4347.9 17366 4241.43C17591.5 4134.95 16666.2 3422.24 16891.6 3315.82" stroke="black" stroke-width="7" stroke-miterlimit="10"/>
<path d="M-6623.75 3132.32C-6398.33 3025.9 -5472.98 3738.62 -5247.45 3632.14C-5021.91 3525.66 -5947.38 2813 -5721.84 2706.53C-5496.3 2600.05 -4571.07 3312.82 -4345.53 3206.34C-4119.99 3099.86 -5045.46 2387.21 -4819.92 2280.73C-4594.38 2174.25 -3669.16 2887.02 -3443.62 2780.54C-3218.08 2674.06 -4143.55 1961.41 -3918.01 1854.93C-3692.47 1748.45 -2767.24 2461.22 -2541.7 2354.75C-2316.17 2248.27 -3241.63 1535.61 -3016.22 1429.19C-2790.8 1322.77 -1865.33 2035.43 -1639.43 1928.78C-1413.53 1822.13 -2339.36 1109.64 -2113.94 1003.22C-1888.52 896.802 -962.932 1609.4 -737.997 1503.21C-513.063 1397.01 -1437.93 684.074 -1211.78 577.311C-985.642 470.548 -61.0184 1183.6 164.4 1077.18C389.818 970.761 -535.409 257.991 -309.991 151.57C-84.5734 45.1493 840.774 757.862 1066.31 651.384C1291.85 544.906 366.383 -167.749 591.801 -274.17C817.219 -380.591 1742.69 332.064 1968.23 225.586C2193.77 119.108 1268.3 -593.547 1493.84 -700.025C1719.37 -806.503 2644.6 -93.7331 2870.14 -200.211C3095.68 -306.689 2170.21 -1019.34 2395.75 -1125.82C2621.29 -1232.3 3546.52 -519.53 3772.05 -626.008C3997.59 -732.486 3072.12 -1445.14 3297.66 -1551.62C3523.2 -1658.1 4448.43 -945.328 4673.97 -1051.81C4899.51 -1158.28 3974.16 -1871 4199.58 -1977.42C4424.99 -2083.84 5350.46 -1371.18 5575.88 -1477.6C5801.3 -1584.02 4876.07 -2296.79 5101.49 -2403.21C5326.91 -2509.64 6252.38 -1796.98 6477.92 -1903.46C6703.46 -2009.94 5777.99 -2722.59 6003.53 -2829.07C6229.06 -2935.55 7154.41 -2222.83 7379.83 -2329.26C7605.25 -2435.68 6680.02 -3148.45 6905.56 -3254.92C7131.1 -3361.4 8056.45 -2648.69 8281.99 -2755.17C8507.52 -2861.65 7582.18 -3574.36 7807.59 -3680.78" stroke="black" stroke-width="7" stroke-miterlimit="10"/>
<path d="M-3287.3 5702.09C-3061.88 5595.67 -2136.53 6308.39 -1910.99 6201.91C-1685.45 6095.43 -2610.92 5382.77 -2385.38 5276.3C-2159.84 5169.82 -1234.62 5882.59 -1009.08 5776.11C-783.539 5669.63 -1709.01 4956.98 -1483.47 4850.5C-1257.93 4744.02 -332.703 5456.79 -107.165 5350.31C118.374 5243.83 -807.095 4531.18 -581.556 4424.7C-356.017 4318.22 569.21 5030.99 794.749 4924.51C1020.29 4818.04 94.8191 4105.38 320.237 3998.96C545.655 3892.54 1471.12 4605.2 1697.03 4498.55C1922.93 4391.9 997.095 3679.41 1222.51 3572.99C1447.93 3466.57 2373.52 4179.17 2598.46 4072.98C2823.39 3966.78 1898.53 3253.84 2124.67 3147.08C2350.81 3040.32 3275.43 3753.37 3500.85 3646.95C3726.27 3540.53 2801.04 2827.76 3026.46 2721.34C3251.88 2614.92 4177.23 3327.63 4402.77 3221.15C4628.3 3114.68 3702.84 2402.02 3928.25 2295.6C4153.67 2189.18 5079.14 2901.83 5304.68 2795.36C5530.22 2688.88 4604.75 1976.22 4830.29 1869.74C5055.83 1763.27 5981.05 2476.04 6206.59 2369.56C6432.13 2263.08 5506.66 1550.43 5732.2 1443.95C5957.74 1337.47 6882.97 2050.24 7108.51 1943.76C7334.05 1837.28 6408.58 1124.63 6634.12 1018.15C6859.66 911.672 7784.88 1624.44 8010.42 1517.96C8235.96 1411.49 7310.61 698.773 7536.03 592.352C7761.45 485.931 8686.92 1198.59 8912.34 1092.17C9137.75 985.745 8212.53 272.976 8437.94 166.555C8663.36 60.1338 9588.83 772.789 9814.37 666.311C10039.9 559.833 9114.44 -152.822 9339.98 -259.3C9565.52 -365.778 10490.9 346.935 10716.3 240.514C10941.7 134.093 10016.5 -578.676 10242 -685.154C10467.6 -791.632 11392.9 -78.9202 11618.4 -185.398C11844 -291.876 10918.6 -1004.59 11144 -1111.01" stroke="black" stroke-width="7" stroke-miterlimit="10"/>
<path d="M1486.32 9378.78C1711.74 9272.36 2637.09 9985.07 2862.63 9878.6C3088.17 9772.12 2162.7 9059.46 2388.24 8952.98C2613.77 8846.51 3539 9559.28 3764.54 9452.8C3990.08 9346.32 3064.61 8633.66 3290.15 8527.19C3515.69 8420.71 4440.92 9133.48 4666.45 9027C4891.99 8920.52 3966.52 8207.87 4192.06 8101.39C4417.6 7994.91 5342.83 8707.68 5568.37 8601.2C5793.91 8494.72 4868.44 7782.07 5093.86 7675.65C5319.27 7569.23 6244.74 8281.88 6470.64 8175.23C6696.55 8068.58 5770.71 7356.1 5996.13 7249.68C6221.55 7143.26 7147.14 7855.86 7372.07 7749.66C7597.01 7643.47 6672.14 6930.53 6898.29 6823.77C7124.43 6717 8049.05 7430.06 8274.47 7323.64C8499.89 7217.22 7574.66 6504.45 7800.08 6398.03C8025.5 6291.61 8950.85 7004.32 9176.39 6897.84C9401.92 6791.36 8476.46 6078.71 8701.87 5972.29C8927.29 5865.87 9852.76 6578.52 10078.3 6472.04C10303.8 6365.57 9378.37 5652.91 9603.91 5546.43C9829.45 5439.95 10754.7 6152.72 10980.2 6046.25C11205.8 5939.77 10280.3 5227.11 10505.8 5120.63C10731.4 5014.16 11656.6 5726.93 11882.1 5620.45C12107.7 5513.97 11182.2 4801.31 11407.7 4694.84C11633.3 4588.36 12558.5 5301.13 12784 5194.65C13009.6 5088.17 12084.2 4375.46 12309.6 4269.04C12535.1 4162.62 13460.5 4875.27 13686 4768.85C13911.4 4662.43 12986.1 3949.66 13211.6 3843.24C13437 3736.82 14362.4 4449.48 14588 4343C14813.5 4236.52 13888.1 3523.87 14113.6 3417.39C14339.1 3310.91 15264.5 4023.62 15489.9 3917.2C15715.3 3810.78 14790.1 3098.01 15015.6 2991.53C15241.2 2885.06 16166.5 3597.77 16392.1 3491.29C16617.6 3384.81 15692.2 2672.1 15917.7 2565.68" stroke="black" stroke-width="7" stroke-miterlimit="10"/>
<path d="M-4724.47 4595.17C-4499.05 4488.75 -3573.7 5201.46 -3348.16 5094.99C-3122.63 4988.51 -4048.09 4275.85 -3822.56 4169.37C-3597.02 4062.9 -2671.79 4775.67 -2446.25 4669.19C-2220.71 4562.71 -3146.18 3850.05 -2920.64 3743.58C-2695.1 3637.1 -1769.88 4349.87 -1544.34 4243.39C-1318.8 4136.91 -2244.27 3424.26 -2018.73 3317.78C-1793.19 3211.3 -867.962 3924.07 -642.423 3817.59C-416.884 3711.12 -1342.35 2998.46 -1116.93 2892.04C-891.517 2785.62 33.9522 3498.27 259.853 3391.62C485.755 3284.98 -440.077 2572.49 -214.659 2466.07C10.7594 2359.65 936.349 3072.25 1161.28 2966.05C1386.22 2859.86 461.354 2146.92 687.497 2040.16C913.639 1933.4 1838.26 2646.45 2063.68 2540.03C2289.1 2433.61 1363.87 1720.84 1589.29 1614.42C1814.71 1508 2740.06 2220.71 2965.59 2114.23C3191.13 2007.75 2265.66 1295.1 2491.08 1188.68C2716.5 1082.26 3641.97 1794.91 3867.51 1688.43C4093.05 1581.96 3167.58 869.301 3393.12 762.823C3618.66 656.345 4543.88 1369.11 4769.42 1262.64C4994.96 1156.16 4069.49 443.503 4295.03 337.025C4520.57 230.547 5445.8 943.317 5671.34 836.839C5896.87 730.361 4971.41 17.7055 5196.94 -88.7725C5422.48 -195.25 6347.71 517.519 6573.25 411.042C6798.79 304.564 5873.44 -408.149 6098.86 -514.57C6324.28 -620.991 7249.75 91.6647 7475.16 -14.7562C7700.58 -121.177 6775.35 -833.946 7000.77 -940.367C7226.19 -1046.79 8151.66 -334.133 8377.2 -440.611C8602.74 -547.089 7677.27 -1259.74 7902.81 -1366.22C8128.35 -1472.7 9053.69 -759.987 9279.11 -866.408C9504.53 -972.829 8579.3 -1685.6 8804.84 -1792.08C9030.38 -1898.55 9955.73 -1185.84 10181.3 -1292.32C10406.8 -1398.8 9481.46 -2111.51 9706.88 -2217.93" stroke="black" stroke-width="7" stroke-miterlimit="10"/>
<path d="M49.1455 8271.87C274.564 8165.45 1199.91 8878.16 1425.45 8771.68C1650.99 8665.2 725.52 7952.55 951.059 7846.07C1176.6 7739.59 2101.83 8452.36 2327.36 8345.88C2552.9 8239.41 1627.43 7526.75 1852.97 7420.27C2078.51 7313.79 3003.74 8026.56 3229.28 7920.09C3454.82 7813.61 2529.35 7100.95 2754.89 6994.47C2980.43 6888 3905.65 7600.77 4131.19 7494.29C4356.73 7387.81 3431.26 6675.15 3656.68 6568.73C3882.1 6462.31 4807.57 7174.97 5033.47 7068.32C5259.37 6961.67 4333.54 6249.19 4558.96 6142.77C4784.37 6036.34 5709.96 6748.94 5934.9 6642.75C6159.83 6536.56 5234.97 5823.62 5461.11 5716.85C5687.25 5610.09 6611.88 6323.15 6837.3 6216.72C7062.71 6110.3 6137.49 5397.53 6362.9 5291.11C6588.32 5184.69 7513.67 5897.41 7739.21 5790.93C7964.75 5684.45 7039.28 4971.79 7264.7 4865.37C7490.11 4758.95 8415.58 5471.61 8641.12 5365.13C8866.66 5258.65 7941.19 4546 8166.73 4439.52C8392.27 4333.04 9317.5 5045.81 9543.04 4939.33C9768.57 4832.85 8843.11 4120.2 9068.64 4013.72C9294.18 3907.24 10219.4 4620.01 10444.9 4513.53C10670.5 4407.06 9745.02 3694.4 9970.56 3587.92C10196.1 3481.44 11121.3 4194.21 11346.9 4087.74C11572.4 3981.26 10647.1 3268.55 10872.5 3162.13C11097.9 3055.7 12023.4 3768.36 12248.8 3661.94C12474.2 3555.52 11549 2842.75 11774.4 2736.33C11999.8 2629.91 12925.3 3342.56 13150.8 3236.08C13376.4 3129.61 12450.9 2416.95 12676.4 2310.47C12902 2204 13827.3 2916.71 14052.7 2810.29C14278.1 2703.87 13352.9 1991.1 13578.5 1884.62C13804 1778.14 14729.3 2490.85 14954.9 2384.38C15180.4 2277.9 14255.1 1565.19 14480.5 1458.76" stroke="black" stroke-width="7" stroke-miterlimit="10"/>
<path d="M-1388.02 7164.94C-1162.6 7058.52 -237.255 7771.23 -11.7167 7664.75C213.822 7558.27 -711.647 6845.62 -486.108 6739.14C-260.569 6632.66 664.658 7345.43 890.197 7238.95C1115.74 7132.48 190.267 6419.82 415.806 6313.34C641.345 6206.86 1566.57 6919.63 1792.11 6813.16C2017.65 6706.68 1092.18 5994.02 1317.72 5887.54C1543.26 5781.07 2468.49 6493.84 2694.02 6387.36C2919.56 6280.88 1994.09 5568.23 2219.51 5461.8C2444.93 5355.38 3370.4 6068.04 3596.3 5961.39C3822.2 5854.74 2896.37 5142.26 3121.79 5035.84C3347.21 4929.41 4272.8 5642.01 4497.73 5535.82C4722.67 5429.63 3797.8 4716.69 4023.94 4609.92C4250.09 4503.16 5174.71 5216.22 5400.13 5109.79C5625.55 5003.37 4700.32 4290.6 4925.74 4184.18C5151.16 4077.76 6076.5 4790.48 6302.04 4684C6527.58 4577.52 5602.11 3864.86 5827.53 3758.44C6052.95 3652.02 6978.42 4364.68 7203.96 4258.2C7429.49 4151.72 6504.02 3439.07 6729.56 3332.59C6955.1 3226.11 7880.33 3938.88 8105.87 3832.4C8331.41 3725.92 7405.94 3013.27 7631.48 2906.79C7857.02 2800.31 8782.24 3513.08 9007.78 3406.6C9233.32 3300.13 8307.85 2587.47 8533.39 2480.99C8758.93 2374.52 9684.16 3087.29 9909.7 2980.81C10135.2 2874.33 9209.89 2161.62 9435.31 2055.2C9660.72 1948.77 10586.2 2661.43 10811.6 2555.01C11037 2448.59 10111.8 1735.82 10337.2 1629.4C10562.6 1522.98 11488.1 2235.63 11713.6 2129.15C11939.2 2022.68 11013.7 1310.02 11239.3 1203.54C11464.8 1097.07 12390.1 1809.78 12615.6 1703.36C12841 1596.94 11915.7 884.167 12141.3 777.689C12366.8 671.212 13292.2 1383.92 13517.7 1277.45C13743.3 1170.97 12817.9 458.255 13043.3 351.835" stroke="black" stroke-width="7" stroke-miterlimit="10"/>
<path d="M3385.6 10841.6C3611.02 10735.2 4536.37 11447.9 4761.91 11341.5C4987.45 11235 4061.98 10522.3 4287.52 10415.8C4513.05 10309.4 5438.28 11022.1 5663.82 10915.7C5889.36 10809.2 4963.89 10096.5 5189.43 9990.05C5414.97 9883.57 6340.2 10596.3 6565.73 10489.9C6791.27 10383.4 5865.8 9670.73 6091.34 9564.25C6316.88 9457.77 7242.11 10170.5 7467.65 10064.1C7693.19 9957.58 6767.72 9244.93 6993.14 9138.51C7218.55 9032.09 8144.02 9744.74 8369.92 9638.09C8595.82 9531.44 7669.99 8818.96 7895.41 8712.54C8120.83 8606.12 9046.42 9318.72 9271.35 9212.52C9496.29 9106.33 8571.42 8393.39 8797.57 8286.63C9023.71 8179.86 9948.33 8892.92 10173.8 8786.5C10399.2 8680.08 9473.94 7967.31 9699.36 7860.89C9924.78 7754.47 10850.1 8467.18 11075.7 8360.7C11301.2 8254.22 10375.7 7541.57 10601.2 7435.15C10826.6 7328.73 11752 8041.38 11977.6 7934.9C12203.1 7828.42 11277.6 7115.77 11503.2 7009.29C11728.7 6902.81 12654 7615.58 12879.5 7509.11C13105 7402.63 12179.6 6689.97 12405.1 6583.49C12630.6 6477.02 13555.9 7189.79 13781.4 7083.31C14006.9 6976.83 13081.5 6264.17 13307 6157.7C13532.6 6051.22 14457.8 6763.99 14683.3 6657.51C14908.9 6551.03 13983.5 5838.32 14208.9 5731.9C14434.3 5625.48 15359.8 6338.13 15585.2 6231.71C15810.7 6125.29 14885.4 5412.52 15110.8 5306.1C15336.3 5199.68 16261.7 5912.34 16487.3 5805.86C16712.8 5699.38 15787.3 4986.72 16012.9 4880.25C16238.4 4773.77 17163.8 5486.48 17389.2 5380.06C17614.6 5273.64 16689.4 4560.87 16914.9 4454.39C17140.4 4347.91 18065.8 5060.63 18291.3 4954.15C18516.9 4847.67 17591.5 4134.96 17816.9 4028.54" stroke="black" stroke-width="7" stroke-miterlimit="10"/>
</g>
<defs>
<clipPath id="clip0_2118_2953">
<rect width="12164" height="7335" rx="350" fill="white"/>
</clipPath>
</defs>
</svg>
