<svg width="134" height="29" viewBox="0 0 134 29" fill="none" xmlns="http://www.w3.org/2000/svg">
<g clip-path="url(#clip0_4456_16)">
<rect width="134" height="29" fill="white"/>
<path d="M5.62 15.24L6.5 18.1L7.4 15.24L8.74 11.8H12.56L7.84 23.28C7.49333 24.12 7.06 24.7933 6.54 25.3C6.03333 25.82 5.44667 26.2 4.78 26.44C4.12667 26.68 3.40667 26.8 2.62 26.8H0.54V23.8H2.28C2.66667 23.8 2.98667 23.7067 3.24 23.52C3.50667 23.3467 3.72667 23.1267 3.9 22.86C4.08667 22.5933 4.24 22.32 4.36 22.04L4.5 21.74L0.46 11.8H4.3L5.62 15.24ZM19.5078 23.24C18.3211 23.24 17.2878 23.0067 16.4078 22.54C15.5411 22.06 14.8745 21.3867 14.4078 20.52C13.9545 19.6533 13.7278 18.62 13.7278 17.42C13.7278 16.1933 13.9545 15.1467 14.4078 14.28C14.8745 13.4133 15.5411 12.7467 16.4078 12.28C17.2745 11.8 18.3078 11.56 19.5078 11.56C21.3211 11.56 22.7345 12.08 23.7478 13.12C24.7745 14.1467 25.2878 15.58 25.2878 17.42C25.2878 18.62 25.0545 19.6533 24.5878 20.52C24.1345 21.3867 23.4745 22.06 22.6078 22.54C21.7411 23.0067 20.7078 23.24 19.5078 23.24ZM19.5078 20.26C20.1478 20.26 20.6478 20.0067 21.0078 19.5C21.3811 18.9933 21.5678 18.2933 21.5678 17.4C21.5678 16.48 21.3811 15.7733 21.0078 15.28C20.6478 14.7867 20.1478 14.54 19.5078 14.54C18.8678 14.54 18.3611 14.7867 17.9878 15.28C17.6145 15.7733 17.4278 16.4867 17.4278 17.42C17.4278 18.3133 17.6145 19.0133 17.9878 19.52C18.3611 20.0133 18.8678 20.26 19.5078 20.26ZM34.3156 23V16.22C34.3156 15.7667 34.2023 15.4 33.9756 15.12C33.7623 14.84 33.4556 14.7 33.0556 14.7C32.589 14.7 32.1556 14.86 31.7556 15.18C31.3556 15.4867 30.909 16.0067 30.4156 16.74L30.0556 13.88C30.6023 13.0533 31.2156 12.46 31.8956 12.1C32.5756 11.74 33.289 11.56 34.0356 11.56C34.9023 11.56 35.629 11.74 36.2156 12.1C36.8156 12.4467 37.269 12.94 37.5756 13.58C37.8823 14.22 38.0356 14.9733 38.0356 15.84V23H34.3156ZM27.0756 23V11.8H30.6956L30.7956 13.52V23H27.0756ZM47.4834 12.78L47.5434 11.8H51.1634V21.74C51.1634 23.42 50.6701 24.68 49.6834 25.52C48.6968 26.3733 47.1768 26.8 45.1234 26.8C44.1101 26.8 43.2101 26.6667 42.4234 26.4C41.6501 26.1467 41.0301 25.7333 40.5634 25.16C40.0968 24.6 39.8368 23.8733 39.7834 22.98H43.6834C43.7368 23.3267 43.8968 23.5733 44.1634 23.72C44.4301 23.8667 44.8501 23.94 45.4234 23.94C46.0901 23.94 46.5901 23.7667 46.9234 23.42C47.2701 23.0733 47.4434 22.5667 47.4434 21.9V21.1C47.0834 21.5133 46.6568 21.82 46.1634 22.02C45.6834 22.22 45.1634 22.32 44.6034 22.32C43.6568 22.32 42.8234 22.0933 42.1034 21.64C41.3834 21.1733 40.8168 20.54 40.4034 19.74C40.0034 18.9267 39.8034 18.0133 39.8034 17C39.8034 15.8933 40.0101 14.9333 40.4234 14.12C40.8501 13.3067 41.4301 12.68 42.1634 12.24C42.9101 11.8 43.7568 11.58 44.7034 11.58C45.2501 11.58 45.7634 11.6867 46.2434 11.9C46.7234 12.1133 47.1368 12.4067 47.4834 12.78ZM45.5434 19.56C45.9834 19.56 46.3701 19.4133 46.7034 19.12C47.0501 18.8267 47.2968 18.44 47.4434 17.96V15.92C47.2968 15.4267 47.0501 15.04 46.7034 14.76C46.3701 14.4667 45.9834 14.32 45.5434 14.32C45.1168 14.32 44.7501 14.4333 44.4434 14.66C44.1368 14.8867 43.8968 15.2 43.7234 15.6C43.5634 15.9867 43.4834 16.4333 43.4834 16.94C43.4834 17.4333 43.5634 17.88 43.7234 18.28C43.8968 18.6667 44.1368 18.98 44.4434 19.22C44.7501 19.4467 45.1168 19.56 45.5434 19.56ZM58.7513 23.24C57.6846 23.24 56.7446 23.08 55.9313 22.76C55.1179 22.4267 54.4846 21.9533 54.0313 21.34C53.5913 20.7267 53.3646 20 53.3512 19.16H56.6913C56.6779 19.64 56.8513 20.0067 57.2113 20.26C57.5713 20.5133 58.0646 20.64 58.6913 20.64C59.1313 20.64 59.4913 20.5667 59.7713 20.42C60.0646 20.2733 60.2113 20.0733 60.2113 19.82C60.2113 19.5667 60.0913 19.3733 59.8513 19.24C59.6113 19.0933 59.2913 18.98 58.8913 18.9C58.5046 18.8067 58.0779 18.7133 57.6113 18.62C57.1446 18.5267 56.6713 18.4133 56.1913 18.28C55.7246 18.1333 55.2913 17.94 54.8913 17.7C54.5046 17.4467 54.1913 17.12 53.9513 16.72C53.7113 16.3067 53.5913 15.7933 53.5913 15.18C53.5913 14.4467 53.7979 13.8133 54.2113 13.28C54.6246 12.7333 55.1979 12.3133 55.9313 12.02C56.6779 11.7133 57.5446 11.56 58.5313 11.56C60.0113 11.56 61.1979 11.9 62.0913 12.58C62.9846 13.2467 63.4713 14.16 63.5513 15.32H60.2313C60.2046 14.9467 60.0446 14.66 59.7513 14.46C59.4579 14.26 59.0446 14.16 58.5113 14.16C58.0979 14.16 57.7713 14.2333 57.5313 14.38C57.3046 14.5133 57.1913 14.7067 57.1913 14.96C57.1913 15.2 57.3113 15.38 57.5513 15.5C57.7913 15.62 58.1046 15.72 58.4913 15.8C58.8779 15.88 59.3046 15.96 59.7713 16.04C60.2513 16.1067 60.7246 16.2067 61.1913 16.34C61.6713 16.4733 62.1046 16.6667 62.4913 16.92C62.8779 17.16 63.1913 17.4867 63.4313 17.9C63.6713 18.3133 63.7912 18.84 63.7912 19.48C63.7912 20.6533 63.3379 21.5733 62.4313 22.24C61.5246 22.9067 60.2979 23.24 58.7513 23.24ZM73.3391 23V16.24C73.3391 15.7733 73.2257 15.4 72.9991 15.12C72.7857 14.84 72.4791 14.7 72.0791 14.7C71.6124 14.7 71.1791 14.86 70.7791 15.18C70.3791 15.4867 69.9324 16.0133 69.4391 16.76L69.0791 13.88C69.6257 13.0533 70.2391 12.46 70.9191 12.1C71.5991 11.74 72.3124 11.56 73.0591 11.56C73.9257 11.56 74.6524 11.74 75.2391 12.1C75.8391 12.4467 76.2924 12.94 76.5991 13.58C76.9057 14.22 77.0591 14.98 77.0591 15.86V23H73.3391ZM66.0991 23V8.18H69.8191V23H66.0991ZM83.6669 15.24L84.5469 18.1L85.4469 15.24L86.7869 11.8H90.6069L85.8869 23.28C85.5402 24.12 85.1069 24.7933 84.5869 25.3C84.0802 25.82 83.4935 26.2 82.8269 26.44C82.1735 26.68 81.4535 26.8 80.6669 26.8H78.5869V23.8H80.3269C80.7135 23.8 81.0335 23.7067 81.2869 23.52C81.5535 23.3467 81.7735 23.1267 81.9469 22.86C82.1335 22.5933 82.2869 22.32 82.4069 22.04L82.5469 21.74L78.5069 11.8H82.3469L83.6669 15.24ZM99.2547 23L99.1547 21.26V15.52C99.1547 15.0933 98.9947 14.76 98.6747 14.52C98.368 14.2667 97.9414 14.14 97.3947 14.14C96.8614 14.14 96.4347 14.2467 96.1147 14.46C95.7947 14.6733 95.608 14.9733 95.5547 15.36H91.9747C92.0547 14.5733 92.328 13.9 92.7947 13.34C93.2614 12.7667 93.9014 12.3267 94.7147 12.02C95.528 11.7133 96.4814 11.56 97.5747 11.56C98.628 11.56 99.548 11.7267 100.335 12.06C101.135 12.38 101.755 12.8533 102.195 13.48C102.648 14.0933 102.875 14.84 102.875 15.72V23H99.2547ZM95.9747 23.24C95.268 23.24 94.6347 23.1 94.0747 22.82C93.5147 22.5267 93.0747 22.1267 92.7547 21.62C92.448 21.1 92.2947 20.5133 92.2947 19.86C92.2947 18.6867 92.7214 17.7733 93.5747 17.12C94.4414 16.4667 95.648 16.14 97.1947 16.14H99.4747L99.4547 18.56L97.2347 18.6C96.808 18.6 96.4747 18.6867 96.2347 18.86C95.9947 19.02 95.8747 19.2467 95.8747 19.54C95.8747 19.7933 95.9747 20.0067 96.1747 20.18C96.3747 20.34 96.648 20.42 96.9947 20.42C97.5014 20.42 97.9547 20.3067 98.3547 20.08C98.7547 19.8533 99.0747 19.54 99.3147 19.14L99.6747 21.32C99.328 21.9733 98.8414 22.46 98.2147 22.78C97.6014 23.0867 96.8547 23.24 95.9747 23.24ZM112.363 23V16.22C112.363 15.7667 112.249 15.4 112.023 15.12C111.809 14.84 111.503 14.7 111.103 14.7C110.636 14.7 110.203 14.86 109.803 15.18C109.402 15.4867 108.956 16.0067 108.463 16.74L108.103 13.88C108.649 13.0533 109.263 12.46 109.942 12.1C110.623 11.74 111.336 11.56 112.083 11.56C112.949 11.56 113.676 11.74 114.263 12.1C114.863 12.4467 115.316 12.94 115.623 13.58C115.929 14.22 116.083 14.9733 116.083 15.84V23H112.363ZM105.123 23V11.8H108.743L108.843 13.52V23H105.123Z" fill="black"/>
<path d="M114.958 0.833374L117.792 4.37504L114.958 7.91671" stroke="#222222" stroke-width="2"/>
<path d="M122.042 5.08337L119.208 8.62504L122.042 12.1667" stroke="#222222" stroke-width="2"/>
</g>
<defs>
<clipPath id="clip0_4456_16">
<rect width="134" height="29" fill="white"/>
</clipPath>
</defs>
</svg>
